# xmcd CD database file
#
# Track frame offsets:
#	180
#	6711
#	14763
#	25302
#	34535
#	53898
#	64234
#	78874
#	100780
#	110445
#	118996
#	130802
#	143234
#	153273
#
# Disc length: 2149 seconds
#
# Revision: 0
# Processed by: cddbd v1.4PL0 Copyright (c) Steve Scherf et al.
# Submitted via: Feurio! 1.64 - http://www.feurio.com
#
DISCID=bd08630e
DTITLE=Ingrid Caven - Der Abendstern
DYEAR=1900
DGENRE=
TTITLE0=Der Abendstern - Instrumental
TTITLE1=Der Ozelot
TTITLE2=Das kleine Hotel
TTITLE3=Nachmittag mit Wolken
TTITLE4=In 10 Sekunden ist alles vorbei
TTITLE5=Bundeswalzer
TTITLE6=Die großen weißen Vögel
TTITLE7=Die Frau in Schwarz
TTITLE8=Der Andere
TTITLE9=Zimmer in Paris
TTITLE10=Ich bin, was du vergessen hast
TTITLE11=Die Männer mit den hellen Hüten
TTITLE12=Kinderlied
TTITLE13=Der Abendstern
EXTD=
EXTT0=
EXTT1=
EXTT2=
EXTT3=
EXTT4=
EXTT5=
EXTT6=
EXTT7=
EXTT8=
EXTT9=
EXTT10=
EXTT11=
EXTT12=
EXTT13=
PLAYORDER=
